<svg width="40" height="40" viewBox="0 0 40 40" fill="none" xmlns="http://www.w3.org/2000/svg">
<circle cx="20" cy="20" r="11.25" fill="white" fill-opacity="0.8" stroke="#7B61FF" stroke-width="1.5"/>
<path d="M25.5551 17.3582L21.7235 17.0257L20.2272 13.5028C19.958 12.8615 19.0397 12.8615 18.7705 13.5028L17.2743 17.0336L13.4505 17.3582C12.7539 17.4136 12.4689 18.2845 12.9993 18.7436L15.9047 21.2611L15.0339 24.9978C14.8755 25.6786 15.6118 26.217 16.2135 25.8528L19.4989 23.8736L22.7843 25.8607C23.386 26.2249 24.1222 25.6865 23.9639 25.0057L23.093 21.2611L25.9985 18.7436C26.5289 18.2845 26.2518 17.4136 25.5551 17.3582ZM19.4989 22.3932L16.5222 24.1903L17.3139 20.802L14.6855 18.522L18.153 18.2211L19.4989 15.0307L20.8526 18.229L24.3201 18.5299L21.6918 20.8099L22.4835 24.1982L19.4989 22.3932Z" fill="#7B61FF"/>
</svg>
