<svg width="22" height="20" viewBox="0 0 22 20" fill="none" xmlns="http://www.w3.org/2000/svg">
<path d="M1.73481 19.0013H20.2648C21.0348 19.0013 21.5148 18.1713 21.1348 17.5013L11.8648 1.50125C11.4748 0.83125 10.5148 0.83125 10.1348 1.50125L0.864805 17.5013C0.484805 18.1713 0.964805 19.0013 1.73481 19.0013ZM12.0048 16.0012H10.0048V14.0012H12.0048V16.0012ZM11.0048 12.0012C10.4548 12.0012 10.0048 11.5512 10.0048 11.0012V9.00125C10.0048 8.45125 10.4548 8.00125 11.0048 8.00125C11.5548 8.00125 12.0048 8.45125 12.0048 9.00125V11.0012C12.0048 11.5512 11.5548 12.0012 11.0048 12.0012Z" fill="#FF9696"/>
</svg>
